<?xml version="1.0" standalone="no"?>
<!DOCTYPE svg PUBLIC "-//W3C//DTD SVG 20010904//EN"
 "http://www.w3.org/TR/2001/REC-SVG-20010904/DTD/svg10.dtd">
<svg version="1.0" xmlns="http://www.w3.org/2000/svg"
 width="512.000000pt" height="512.000000pt" viewBox="0 0 512.000000 512.000000"
 preserveAspectRatio="xMidYMid meet">

<g transform="translate(0.000000,512.000000) scale(0.100000,-0.100000)"
fill="#000000" stroke="none">
<path d="M0 4928 l0 -193 24 67 c52 146 166 254 321 304 36 11 19 13 -152 13
l-193 1 0 -192z"/>
<path d="M4802 5096 c140 -50 244 -154 294 -295 l24 -66 0 193 0 192 -192 0
-193 0 67 -24z"/>
<path d="M2996 4758 c-87 -18 -153 -108 -143 -194 13 -119 140 -197 252 -154
95 36 142 158 95 249 -17 35 -72 91 -88 91 -4 0 -23 4 -42 8 -19 5 -53 5 -74
0z"/>
<path d="M4406 4758 c-87 -18 -153 -108 -143 -194 13 -119 140 -197 252 -154
95 36 142 158 95 249 -17 35 -72 91 -88 91 -4 0 -23 4 -42 8 -19 5 -53 5 -74
0z"/>
<path d="M3655 4741 c-107 -66 -129 -198 -47 -284 40 -42 75 -57 133 -57 183
0 253 243 96 335 -55 31 -137 34 -182 6z"/>
<path d="M400 2286 c0 -1312 3 -1802 11 -1826 23 -64 -126 -60 2147 -60 1518
0 2078 3 2102 11 64 23 60 -100 60 1874 l0 1795 -2160 0 -2160 0 0 -1794z
m2229 845 c76 -24 146 -68 203 -129 91 -97 128 -194 128 -332 0 -138 -37 -235
-128 -332 -95 -101 -206 -148 -352 -148 -146 0 -257 47 -352 148 -91 97 -128
194 -128 332 0 138 37 235 128 332 56 60 126 105 200 129 79 25 220 25 301 0z
m1111 -481 c18 -18 20 -33 20 -160 l0 -140 140 0 c127 0 142 -2 160 -20 13
-13 20 -33 20 -60 0 -27 -7 -47 -20 -60 -18 -18 -33 -20 -160 -20 l-140 0 0
-140 c0 -127 -2 -142 -20 -160 -13 -13 -33 -20 -60 -20 -27 0 -47 7 -60 20
-18 18 -20 33 -20 160 l0 140 -140 0 c-127 0 -142 2 -160 20 -13 13 -20 33
-20 60 0 27 7 47 20 60 18 18 33 20 160 20 l140 0 0 140 c0 127 2 142 20 160
13 13 33 20 60 20 27 0 47 -7 60 -20z m-919 -648 c189 -45 341 -124 451 -238
107 -111 168 -245 168 -371 0 -77 -17 -112 -70 -142 -37 -21 -43 -21 -890 -21
l-852 0 -39 22 c-49 27 -69 70 -69 146 0 217 192 452 451 552 170 65 272 80
544 75 176 -2 237 -7 306 -23z"/>
<path d="M0 193 l0 -193 193 1 c171 0 188 2 152 13 -155 50 -269 158 -321 304
l-24 67 0 -192z"/>
<path d="M5106 350 c-10 -54 -56 -138 -103 -190 -60 -66 -121 -108 -202 -136
l-66 -24 193 0 192 0 0 190 c0 105 -2 190 -4 190 -2 0 -6 -14 -10 -30z"/>
</g>
</svg>
