<?xml version="1.0" standalone="no"?>
<!DOCTYPE svg PUBLIC "-//W3C//DTD SVG 20010904//EN"
 "http://www.w3.org/TR/2001/REC-SVG-20010904/DTD/svg10.dtd">
<svg version="1.0" xmlns="http://www.w3.org/2000/svg"
 width="960.000000pt" height="540.000000pt" viewBox="0 0 960.000000 540.000000"
 preserveAspectRatio="xMidYMid meet">

<g transform="translate(0.000000,540.000000) scale(0.100000,-0.100000)"
fill="#000000" stroke="none">
<path d="M0 2700 l0 -2700 4800 0 4800 0 0 2700 0 2700 -4800 0 -4800 0 0
-2700z m2655 1201 c22 -10 54 -34 72 -52 67 -71 63 5 63 -1209 0 -1214 4
-1138 -63 -1209 -18 -18 -50 -42 -72 -52 -38 -18 -90 -19 -1143 -19 -1217 0
-1140 -4 -1211 63 -18 18 -42 50 -52 72 -18 38 -19 90 -19 1143 0 1217 -4
1140 63 1211 18 18 50 42 72 52 38 18 90 19 1145 19 1055 0 1107 -1 1145 -19z
m2055 -1368 l1 -188 99 103 c99 101 100 102 147 102 l48 0 -94 -94 -94 -94 21
-29 c11 -15 46 -53 77 -83 31 -30 66 -67 76 -82 l20 -28 -48 1 c-47 1 -49 2
-123 84 -41 46 -79 84 -84 85 -5 0 -18 -7 -28 -17 -14 -13 -18 -31 -18 -85 l0
-68 -35 0 -35 0 0 290 0 290 35 0 35 0 0 -187z m1210 83 l0 -103 47 23 c84 43
175 26 210 -39 14 -26 18 -63 21 -194 l4 -163 -41 0 -41 0 0 154 c0 137 -2
156 -19 177 -26 32 -93 31 -145 0 l-36 -23 0 -154 0 -154 -35 0 -35 0 0 290 0
290 35 0 35 0 0 -104z m2700 -186 l0 -290 -35 0 -35 0 0 290 0 290 35 0 35 0
0 -290z m480 0 l0 -290 -40 0 c-29 0 -40 4 -40 15 0 19 2 19 -45 -5 -54 -27
-123 -26 -165 3 -53 35 -73 79 -78 168 -4 70 -2 84 22 134 38 76 92 108 173
103 32 -2 66 -8 76 -12 15 -7 17 0 17 83 l0 91 40 0 40 0 0 -290z m-1430 247
l65 -22 3 -47 c2 -27 -1 -48 -5 -48 -4 0 -27 14 -51 30 -58 39 -141 56 -205
41 -104 -24 -150 -88 -151 -211 -2 -149 70 -225 209 -224 38 1 82 6 98 12 26
11 27 15 27 82 l0 70 -75 0 -75 0 0 30 0 30 115 0 116 0 -3 -122 -3 -121 -70
-24 c-90 -31 -216 -29 -281 4 -156 81 -194 319 -74 456 76 86 220 112 360 64z
m-4380 -97 l0 -110 135 0 135 0 0 110 0 110 40 0 40 0 0 -275 0 -275 -40 0
-40 0 0 135 0 135 -135 0 -135 0 0 -135 0 -135 -40 0 -40 0 0 275 0 275 40 0
40 0 0 -110z m5130 75 c0 -35 0 -35 -45 -35 -45 0 -45 0 -45 35 0 35 0 35 45
35 45 0 45 0 45 -35z m-2800 -45 l0 -60 75 0 75 0 0 -30 0 -30 -76 0 -76 0 4
-131 c3 -125 4 -132 27 -151 20 -16 34 -18 73 -13 l48 7 0 -31 c0 -37 -23 -46
-106 -39 -43 4 -61 11 -82 32 -27 26 -27 29 -30 176 l-3 150 -25 0 c-20 0 -24
5 -24 30 0 25 4 30 25 30 24 0 25 3 25 60 l0 60 35 0 35 0 0 -60z m-1573 -76
c48 -36 53 -56 53 -231 l0 -163 -35 0 c-27 0 -35 4 -35 19 0 17 -3 17 -47 -6
-39 -20 -59 -24 -107 -21 -53 4 -62 8 -92 41 -28 30 -34 45 -34 81 0 58 16 92
54 115 34 21 127 41 188 41 31 0 38 3 38 20 0 11 -9 29 -19 39 -35 35 -96 37
-209 5 -22 -6 -23 -4 -20 32 3 34 7 40 33 46 17 3 69 6 117 5 70 -2 92 -6 115
-23z m476 6 c22 -11 27 -20 27 -52 0 -21 -2 -38 -5 -38 -2 0 -23 10 -46 22
-23 11 -60 22 -84 22 -85 2 -127 -47 -127 -148 0 -79 21 -122 70 -143 42 -18
88 -12 143 17 22 11 42 20 44 20 3 0 5 -18 5 -39 0 -38 -2 -40 -47 -55 -94
-32 -204 -11 -251 48 -33 42 -44 91 -40 170 6 134 80 201 213 193 39 -2 82
-10 98 -17z m834 -6 c48 -36 53 -56 53 -231 l0 -163 -35 0 c-27 0 -35 4 -35
19 0 17 -3 17 -47 -6 -39 -20 -59 -24 -107 -21 -53 4 -62 8 -92 41 -28 30 -34
45 -34 81 0 58 16 92 54 115 34 21 127 41 188 41 31 0 38 3 38 20 0 11 -9 29
-19 39 -35 35 -96 37 -209 5 -22 -6 -23 -4 -20 32 3 34 7 40 33 46 17 3 69 6
117 5 70 -2 92 -6 115 -23z m1248 -8 c52 -40 75 -95 75 -181 0 -86 -23 -141
-76 -181 -34 -26 -45 -29 -114 -29 -69 0 -80 3 -114 29 -53 40 -76 95 -76 181
0 145 70 219 201 213 54 -3 73 -9 104 -32z m465 19 c55 -28 64 -62 68 -242 l4
-163 -41 0 -41 0 0 154 c0 137 -2 156 -19 177 -26 32 -93 31 -145 0 l-36 -23
0 -154 0 -154 -35 0 -35 0 0 205 0 205 35 0 c27 0 35 -4 35 -19 0 -17 3 -17
47 5 54 28 120 31 163 9z m860 -149 c0 -137 2 -156 19 -177 24 -30 93 -31 142
-3 l34 20 3 157 3 157 39 0 40 0 0 -205 0 -205 -40 0 c-33 0 -40 3 -40 19 0
19 -2 19 -42 -4 -50 -29 -123 -33 -168 -10 -55 28 -64 62 -68 243 l-4 162 41
0 41 0 0 -154z m480 -51 l0 -205 -35 0 -35 0 0 205 0 205 35 0 35 0 0 -205z"/>
<path d="M1689 3711 c-20 -20 -29 -39 -29 -61 0 -37 47 -90 79 -90 39 0 71 20
88 55 16 33 16 37 0 70 -29 60 -92 72 -138 26z"/>
<path d="M2043 3716 c-22 -19 -28 -32 -28 -66 0 -82 88 -119 146 -61 20 20 29
39 29 61 0 22 -9 41 -29 61 -37 36 -79 38 -118 5z"/>
<path d="M2409 3725 c-38 -21 -55 -67 -39 -105 14 -33 55 -60 90 -60 33 0 80
53 80 90 0 22 -9 41 -29 61 -32 32 -62 36 -102 14z"/>
<path d="M430 2500 c0 -887 0 -900 20 -920 20 -20 33 -20 1060 -20 1027 0
1040 0 1060 20 20 20 20 33 20 920 l0 900 -1080 0 -1080 0 0 -900z m1168 403
c25 -15 60 -48 77 -72 28 -40 30 -48 30 -136 0 -88 -2 -96 -30 -136 -17 -24
-53 -57 -80 -74 -43 -27 -57 -30 -125 -30 -68 0 -82 3 -125 30 -27 17 -63 50
-80 74 -26 38 -30 52 -33 124 -3 71 0 88 20 126 66 123 228 167 346 94z m496
-209 c13 -5 16 -22 16 -80 l0 -74 64 0 c85 0 96 -5 96 -45 0 -40 -11 -45 -96
-45 l-64 0 0 -74 c0 -66 -2 -75 -20 -81 -11 -3 -29 -3 -40 0 -18 6 -20 15 -20
81 l0 74 -64 0 c-85 0 -96 5 -96 45 0 40 11 45 96 45 l64 0 0 74 c0 73 4 83
37 85 6 1 18 -2 27 -5z m-471 -328 c192 -37 327 -161 327 -300 0 -99 16 -96
-480 -96 -496 0 -480 -3 -480 96 0 136 134 262 319 299 89 18 223 18 314 1z"/>
<path d="M8874 2486 c-43 -19 -64 -69 -64 -151 0 -82 18 -119 64 -135 37 -12
76 -6 119 19 l27 15 0 123 0 122 -37 10 c-49 14 -71 13 -109 -3z"/>
<path d="M3943 2340 c-70 -8 -110 -29 -119 -64 -19 -76 86 -110 174 -56 30 18
32 24 32 75 0 38 -4 55 -12 54 -7 -1 -41 -5 -75 -9z"/>
<path d="M5253 2340 c-70 -8 -110 -29 -119 -64 -19 -76 86 -110 174 -56 30 18
32 24 32 75 0 38 -4 55 -12 54 -7 -1 -41 -5 -75 -9z"/>
<path d="M6443 2486 c-44 -20 -65 -67 -65 -141 0 -77 21 -122 69 -141 41 -17
81 -11 117 17 54 43 56 197 3 247 -30 28 -84 35 -124 18z"/>
</g>
</svg>
